<svg xmlns="http://www.w3.org/2000/svg" viewBox="0 0 554.89 171.64"><defs><style>.a{fill:#4a647d;}.b{isolation:isolate;}.c{fill:#48627a;}</style></defs><path class="a" d="M381.07,89.79l-7,4.29c-8,4.86-16.3,4.28-24.74,1.57-5.48-1.77-7.53-5.88-7.06-11.86-7.14.13-13.61-1.18-18.49-7.13-1.76,2.3-3.21,4.14-4.59,6-5.72,7.77-13.65,10.24-22.88,9.42-4.33-.39-6.07-3.53-7-6.89-6.56,2.63-13,5.38-19.61,7.83-4.81,1.78-10.13,3.24-14.33-.7s-3-9.28-1.93-14.3c.2-.93.43-1.86.77-3.26-10.39,1.83-20.47,3-30.55-.64-2.15,3.54-4.15,7.18-6.47,10.61-4,6-9.53,9.09-16.9,7.5-4.36-.94-7.5,1.41-10.76,3.44-2.14,1.32-3.95,3.16-6.09,4.49-6,3.72-9.88,2.81-14-3.51-2.53,1.14-5.09,2.49-7.79,3.46-3.27,1.17-6.6,2.6-10,2.87-7.09.57-11.61-3.77-12.08-10.93-.16-2.48,0-5,0-8.84-4.27,1.85-7.69,2.92-10.69,4.7-9.76,5.78-19.52,11.61-26.8,20.66a17.7,17.7,0,0,1-4.25,4,34.8,34.8,0,0,1-5.94,2.4c-.09-2.61-1.16-5.81,0-7.71,2-3.41,4.83-6.87,8.18-8.83,9.87-5.78,14.17-15.14,17.78-25.14,1.13-3.11,2.06-6.3,3.32-10.2-6.27,3.57-11.64,7-17.32,9.79C88.58,80.45,73.55,89,56.36,90.52c-10.93,1-22.08.09-33.09-.57A66.62,66.62,0,0,1,6.11,86.74C.39,84.83-.9,81.24.54,75.41c.62-2.51,2.18-3.87,4.55-2C22.74,87.23,42.77,86,62.7,81.53,83.81,76.84,102.9,67,120.31,54.22a12.22,12.22,0,0,0,4.2-7.15c2.07-11.87,4.84-23.47,12.84-32.87A81.16,81.16,0,0,1,150.81,1.67c4.68-3.46,8.52-1.33,9.61,4.38a21.88,21.88,0,0,1-3.84,16.79,206.26,206.26,0,0,1-19.05,23.9c-6.15,6.52-11.79,12.71-13.17,22.11-.78,5.27-3.26,10.29-5.36,16.55,3.1-1.87,5.23-3.3,7.48-4.48a56.24,56.24,0,0,1,8-3.66c5.65-1.9,8.59.17,9,6.14.17,2.23,0,4.49.11,6.73.13,4.44,1.43,6,5.86,5.66,3-.22,5.86-1.48,8.76-2.38,1.05-.33,2-1.16,3-1.45,6.13-1.63,10.26-5,12.72-11.23,3.25-8.19,12.93-11.54,19.2-4.13A45.73,45.73,0,0,1,198.64,84c5.47,2.15,10.67.85,14.2-4.4,3.07-4.59,5.55-9.57,8.31-14.41,12.11,7.43,24.63,3.18,37.13.83,2.92-.55,6.18-1.87,8.15,1.88,1.1,2.07,1.32,3.72-1.26,5.21-5.16,3-7.4,7.72-7.46,13.92,1.31.16,2.45.59,3.43.36C271.38,85,281.69,82.64,288.81,74c1.42-1.73,1.68-4.37,2.86-6.37.68-1.17,2.12-1.89,3.21-2.82.84,1.17,2.47,2.4,2.37,3.48a51,51,0,0,1-2,10.15c-1.7,5.76-1.16,6.76,4.9,6.53s11.43-2.5,15.19-7.58c2.9-3.91,5.67-7.9,9.06-12.63,1.12,2.12,2.45,3.48,2.46,4.85.05,4.48,3.05,5.91,6.47,6.38,7.17,1,14,.09,19.26-5.65,2.76-3,5.63-5.87,8.35-8.88s6-3.55,9.16-2c3.43,1.63,2.7,5.37,2.13,8.3-1.59,8.12-13.74,17.19-21.93,16.89-1,0-2.05,1-3.07,1.6.69.88,1.2,2.24,2.08,2.57,8.25,3,16.16,2.44,23.57-2.58,8.5-5.75,16.61-12,22.68-20.38,1.86-2.57,3.15-5.55,4.92-8.73,6.8,2.72,4.81,9.15,6.17,14.13,1.92,7-3.16,10.1-7.87,13.89,6-.33,7.65-1.74,23.45-19.87-1.11-3.16-2.74-5.76-2.82-8.41-.17-5.7,1-6.49,6.62-6.24a9.25,9.25,0,0,1,1.67.12c4.12.94,8.16,1.72,9.82-3.86,1.34.67,2.63.87,3,1.56,2.43,4.86,6.83,3.79,10.89,3.88,1.25,0,2.87-.22,3.67.44,1.33,1.1,2.75,2.77,2.92,4.33.09.88-2.17,2.72-3.53,2.89-3.31.43-6.71.11-10.08.14-5.51,0-6.5.65-6.92,6-.25,3.23-2,7.15,1.58,9.68,2.52,1.79,12.17.71,14.46-1.33,3.55-3.17,6.94-6.52,10.54-9.63,7.72-6.64,15.31-13.46,23.37-19.67,8.37-6.45,18.27-9.87,28.65-11.15,11.39-1.4,22.88-2,34.32-2.88,2.22-.18,4.39-.17,4.48,2.9s-1.47,4.34-4.37,4.43c-6.72.22-13.46.25-20.16.76-13.83,1.06-27.37,3.51-38.71,12.22-8.1,6.23-15.77,13-23.56,19.63-2.66,2.26-5,4.93-7.65,7.21-7.23,6.19-20.17,5.7-26.64-1.3-1.92-2.08-2.74-5.19-4.26-8.22-1,1-2.34,2.13-3.53,3.41-4.5,4.81-8.86,9.76-13.45,14.49a19.26,19.26,0,0,1-16.76,6c-1.81-.21-3.68,0-5.45-.4C387.56,91.69,384.85,90.81,381.07,89.79ZM156.57,8.42c-10.09-.86-28.35,25.28-25.76,36.44C141,33.77,152.69,24.16,156.57,8.42ZM173.22,93c2.26.9,3.77,2.07,4.54,1.7a50,50,0,0,0,8.54-5.13c1.76-1.32,4.22-2.91,1.62-5.74-2.06-2.24-6.67-3.36-8.27-1.37C177.38,85.26,175.79,88.65,173.22,93ZM362.64,72.69c4.06-1.14,7.2-5.66,6.19-8a2.83,2.83,0,0,0-2.21-1.55c-1.18-.13-2.17.65-3.54,2-3.17,3.11-5.84,5.73-5.09,7.08C358.6,73.34,361.15,73.1,362.64,72.69Zm27,8.63c.52,1.11,5.93.71,9.51-2.44,2.68-2.35,4.59-6.48,3.32-8-.64-.76-2-.71-3.32-.45h0c-2,2.21-3.94,4.46-6,6.64C390.05,80.47,389.44,80.9,389.64,81.32Z"/><g class="b"><g class="b"><path class="a" d="M173.37,149.88l-1,8.15a5.57,5.57,0,0,1,1.47-.85,4.36,4.36,0,0,1,1.42-.23,4.1,4.1,0,0,1,3.1,1.29,4.54,4.54,0,0,1,1.22,3.26,5.06,5.06,0,0,1-1.39,3.63,4.55,4.55,0,0,1-3.41,1.46,4.45,4.45,0,0,1-3.28-1.44l-.16,1.23h-2.15l2-16.5Zm4,11.67a2.85,2.85,0,0,0-.73-2,2.51,2.51,0,0,0-1.91-.78,2.69,2.69,0,0,0-2.1.94,3.41,3.41,0,0,0-.83,2.37,2.73,2.73,0,0,0,.71,2,2.44,2.44,0,0,0,1.86.76,2.74,2.74,0,0,0,2.12-.94A3.24,3.24,0,0,0,177.41,161.55Z"/><path class="a" d="M195.06,157.18l-8.33,14.46h-2.46l3.7-6.41-3.29-8H187l2.28,5.88,3.33-5.88Z"/><path class="a" d="M217.7,158.07l-.27,2.19a5.45,5.45,0,0,0-1.27-1.22,2.69,2.69,0,0,0-1.41-.36,2.55,2.55,0,0,0-2,.91,3.39,3.39,0,0,0-.79,2.33,3,3,0,0,0,.74,2.14,2.53,2.53,0,0,0,1.94.81,3.87,3.87,0,0,0,2.37-1l-.29,2.27a6.26,6.26,0,0,1-2.38.51,4.36,4.36,0,0,1-3.29-1.32,4.75,4.75,0,0,1-1.26-3.42,5,5,0,0,1,1.36-3.6,4.47,4.47,0,0,1,3.4-1.46A5,5,0,0,1,217.7,158.07Z"/><path class="a" d="M233.1,157.18l-1.14,9.2H229.8l.13-1a4.31,4.31,0,0,1-2.87,1.21,3.87,3.87,0,0,1-3-1.24,4.53,4.53,0,0,1-1.15-3.21,5.33,5.33,0,0,1,1.32-3.73,4.44,4.44,0,0,1,3.43-1.46,4.09,4.09,0,0,1,1.68.32,4.88,4.88,0,0,1,1.43,1.12l.15-1.21Zm-2.63,4.33a2.85,2.85,0,0,0-.7-2,2.37,2.37,0,0,0-1.82-.77,2.57,2.57,0,0,0-2,1,3.45,3.45,0,0,0-.82,2.34,2.88,2.88,0,0,0,.68,2,2.23,2.23,0,0,0,1.76.77,2.7,2.7,0,0,0,2.06-1A3.4,3.4,0,0,0,230.47,161.51Z"/><path class="a" d="M242.26,157.18l-.12,1a4.51,4.51,0,0,1,2.94-1.19,4.05,4.05,0,0,1,3.06,1.28,4.52,4.52,0,0,1,1.22,3.23,5.1,5.1,0,0,1-1.4,3.66,4.53,4.53,0,0,1-3.44,1.47,3.92,3.92,0,0,1-1.73-.33,5,5,0,0,1-1.5-1.2l-.81,6.58h-2.15l1.77-14.46Zm4.94,4.37a2.87,2.87,0,0,0-.7-2,2.29,2.29,0,0,0-1.8-.79,2.82,2.82,0,0,0-2.18,1,3.31,3.31,0,0,0-.88,2.35,2.62,2.62,0,0,0,.74,2,2.53,2.53,0,0,0,1.91.76,2.68,2.68,0,0,0,2.07-.93A3.39,3.39,0,0,0,247.2,161.55Z"/><path class="a" d="M264.86,157.18l-8.33,14.46h-2.47l3.71-6.41-3.3-8h2.31l2.27,5.88,3.33-5.88Z"/><path class="a" d="M278,164.37l-.24,2h-9.45l6.16-7.2h-4.62l.24-2h8.68l-6.2,7.19Z"/><path class="a" d="M293.92,161.69a4.73,4.73,0,0,1-1.47,3.54,4.88,4.88,0,0,1-3.59,1.44,5,5,0,0,1-3.65-1.36,4.58,4.58,0,0,1-1.43-3.45,4.7,4.7,0,0,1,1.48-3.56,5.14,5.14,0,0,1,3.71-1.43,4.85,4.85,0,0,1,3.56,1.35A4.57,4.57,0,0,1,293.92,161.69Zm-2.18-.11a2.83,2.83,0,0,0-.77-2.1,2.69,2.69,0,0,0-2-.8,2.86,2.86,0,0,0-2.15.89,3.14,3.14,0,0,0-.85,2.26,3,3,0,0,0,.8,2.19,2.72,2.72,0,0,0,2.07.85,2.65,2.65,0,0,0,2.09-.93A3.35,3.35,0,0,0,291.74,161.58Z"/><path class="a" d="M308.85,157.18l-.66,5.35a10.27,10.27,0,0,1-.19,1.19,6.27,6.27,0,0,1-.26.85,2.85,2.85,0,0,1-.91,1.16,4.55,4.55,0,0,1-2.88.86,4,4,0,0,1-2.72-.87,2.94,2.94,0,0,1-1-2.35c0-.15,0-.33,0-.53s0-.43.07-.69l.61-5h2.16l-.64,5.16c0,.22,0,.42-.06.58s0,.31,0,.42c0,1,.57,1.45,1.71,1.45a1.8,1.8,0,0,0,1.37-.47,3.11,3.11,0,0,0,.59-1.68l.67-5.46Z"/><path class="a" d="M328.1,159.18l-.88,7.2h-2.16l.89-7.2h-1.41l.25-2h1.4l.51-4.11a4.38,4.38,0,0,1,.89-2.42,2.53,2.53,0,0,1,2-.77,4.43,4.43,0,0,1,1.83.5l-.24,1.89a1.84,1.84,0,0,0-1.11-.48,1,1,0,0,0-.87.4,3.84,3.84,0,0,0-.4,1.47l-.43,3.52h1.95l-.24,2Z"/><path class="a" d="M345.41,157.18l-1.13,9.2h-2.16l.12-1a4.31,4.31,0,0,1-2.87,1.21,3.89,3.89,0,0,1-3-1.24,4.57,4.57,0,0,1-1.15-3.21,5.33,5.33,0,0,1,1.32-3.73A4.44,4.44,0,0,1,340,157a4,4,0,0,1,1.68.32,4.64,4.64,0,0,1,1.43,1.12l.15-1.21Zm-2.63,4.33a2.8,2.8,0,0,0-.7-2,2.37,2.37,0,0,0-1.82-.77,2.59,2.59,0,0,0-2,1,3.45,3.45,0,0,0-.82,2.34,2.88,2.88,0,0,0,.68,2,2.24,2.24,0,0,0,1.76.77,2.68,2.68,0,0,0,2.06-1A3.4,3.4,0,0,0,342.78,161.51Z"/><path class="a" d="M354.58,157.18l-.09.79a3.24,3.24,0,0,1,2.2-1,2.6,2.6,0,0,1,1.78.72l-1.38,1.77a1.85,1.85,0,0,0-1.19-.5,1.53,1.53,0,0,0-.72.16,1.35,1.35,0,0,0-.54.5,3,3,0,0,0-.38.9,8.86,8.86,0,0,0-.24,1.31l-.57,4.59h-2.16l1.14-9.2Z"/><path class="a" d="M366.49,157.18l-.09.86a3.47,3.47,0,0,1,2.53-1.1,2.29,2.29,0,0,1,1.33.33,2.42,2.42,0,0,1,.84,1.14,4,4,0,0,1,2.95-1.46c1.83,0,2.74.84,2.74,2.51,0,.17,0,.41-.05.72s-.07.68-.12,1.13l-.62,5.07h-2.16l.66-5.33a10.05,10.05,0,0,0,.09-1.09,1.06,1.06,0,0,0-1.21-1.2,2.29,2.29,0,0,0-.83.14,1.47,1.47,0,0,0-.6.44,2.43,2.43,0,0,0-.41.77,6,6,0,0,0-.25,1.13l-.63,5.14h-2.15l.67-5.46q.09-.75.09-1c0-.76-.42-1.14-1.24-1.14q-1.8,0-2.1,2.49l-.64,5.13h-2.16l1.14-9.2Z"/></g></g><g class="b"><g class="b"><path class="c" d="M161.27,130.17l5.19,7.13h-3.09l-4.79-6.85h-.45v6.85H155.6V120.56h3q3.31,0,4.79,1.24a4.58,4.58,0,0,1,1.63,3.67,4.75,4.75,0,0,1-1,3.06A4.58,4.58,0,0,1,161.27,130.17Zm-3.14-1.92h.8q3.58,0,3.59-2.75c0-1.71-1.17-2.57-3.49-2.57h-.9Z"/><path class="c" d="M189.32,122.93h-6.71v4h6.51v2.37h-6.51v5.6h6.71v2.37h-9.24V120.56h9.24Z"/><path class="c" d="M213.21,123.05l-2.05,1.22a3.4,3.4,0,0,0-1.09-1.3,2.49,2.49,0,0,0-1.4-.35,2.65,2.65,0,0,0-1.75.59,1.88,1.88,0,0,0-.69,1.48c0,.82.61,1.48,1.82,2l1.67.69a7.08,7.08,0,0,1,3,2,4.52,4.52,0,0,1,1,2.91,5.15,5.15,0,0,1-1.54,3.82,5.31,5.31,0,0,1-3.85,1.52,5.13,5.13,0,0,1-3.6-1.29,5.9,5.9,0,0,1-1.75-3.64l2.56-.56a4.43,4.43,0,0,0,.61,2,2.89,2.89,0,0,0,4.24.29,2.74,2.74,0,0,0,.78-2,2.83,2.83,0,0,0-.14-.9,2.33,2.33,0,0,0-.42-.75,3.38,3.38,0,0,0-.74-.64,7.33,7.33,0,0,0-1.09-.57l-1.61-.67c-2.3-1-3.44-2.39-3.44-4.25a4,4,0,0,1,1.44-3.16,5.23,5.23,0,0,1,3.59-1.28A5,5,0,0,1,213.21,123.05Z"/><path class="c" d="M232.74,122.93V137.3h-2.53V122.93h-3.85v-2.37h10.22v2.37Z"/><path class="c" d="M258.87,133.24H251.7l-1.87,4.06h-2.72l8.29-17.79,8,17.79h-2.77Zm-1-2.38-2.49-5.69-2.6,5.69Z"/><path class="c" d="M278.48,120.56v10.08a5.56,5.56,0,0,0,.7,3.16,3.45,3.45,0,0,0,3,1.44,3.49,3.49,0,0,0,3-1.44,5.53,5.53,0,0,0,.7-3.16V120.56h2.53v10.78a6,6,0,0,1-1.65,4.36,6.37,6.37,0,0,1-9.1,0,6,6,0,0,1-1.65-4.36V120.56Z"/><path class="c" d="M309.14,130.17l5.18,7.13h-3.09l-4.78-6.85H306v6.85h-2.52V120.56h3q3.31,0,4.79,1.24a4.58,4.58,0,0,1,1.63,3.67,4.75,4.75,0,0,1-1,3.06A4.58,4.58,0,0,1,309.14,130.17ZM306,128.25h.81q3.58,0,3.59-2.75,0-2.56-3.5-2.57H306Z"/><path class="c" d="M337.78,133.24h-7.17l-1.86,4.06H326l8.28-17.79,8,17.79h-2.77Zm-1-2.38-2.48-5.69-2.6,5.69Z"/><path class="c" d="M355.51,137.3V119.42l12.21,12.78V120.56h2.53v17.76L358,125.58V137.3Z"/><path class="c" d="M390,122.93V137.3h-2.53V122.93h-3.85v-2.37h10.22v2.37Z"/></g></g></svg>