<svg xmlns="http://www.w3.org/2000/svg" viewBox="0 0 250.55 78.57"><defs><style>.a{fill:#4a647d;}.b{fill:#48627a;}</style></defs><path class="a" d="M149,29c-2.13-9.65-11.09-16.06-22.83-16.34-9.87-.23-19.11,5.12-22.87,13.32l-1-.47c4-8.74,13.4-14.24,23.94-14,12.27.29,21.66,7.05,23.91,17.23Z"/><path class="a" d="M.07,73.05a.66.66,0,0,1,.07-.7c.06-.09.07-.11,2.74-2.58,3.36-3.13,9-8.36,11.18-10.62a45.64,45.64,0,0,0,3.82-4.57,58.06,58.06,0,0,0,4.8-7.6,65.34,65.34,0,0,0,2.95-6.55l.52-1.31c1.26-3.09,2.23-5.64,3.06-8a1.23,1.23,0,0,1,.55-.66L48.08,20.1,53.51,17c4.14-2.32,8.41-4.72,12.56-7.16a7.83,7.83,0,0,1,1.41-1.6A6.38,6.38,0,0,1,69.68,7a6.1,6.1,0,0,1,2.08-.36,7.24,7.24,0,0,1,2.84.6,4.35,4.35,0,0,1,.7.32l.32.17a6,6,0,0,1,1,.62l.88.61.86.74c.27.22.53.45.78.68s.5.45.76.66c.52.44,1,.85,1.59,1.25a151.12,151.12,0,0,0,14,8.74c3.88,2.21,7.87,4.39,11.74,6.5L110,29.05l1.48.82c1.91,1.05,3.88,2.13,5.79,3.36A5.79,5.79,0,0,1,119,35a4.56,4.56,0,0,1,.58,2.56,7.46,7.46,0,0,1-1.19,3.36l2.26,1.18c2.32,1.21,4.72,2.46,7.1,3.64,3.78,1.89,7.2,3.53,10.44,5,4.19,1.93,6.94,3.19,10.61,4.6,4.9,1.87,8.8,3,10.27,3.43.89.25.91.26,1,.48l.11.21-.19.63h-.43a69.92,69.92,0,0,1-11.3-3.42c-3.24-1.24-6.66-2.67-10.75-4.49-3.29-1.47-6.74-3.08-10.55-4.92-2.41-1.16-4.83-2.38-7.18-3.57l-3.22-1.63a.94.94,0,0,1-.47-.53.92.92,0,0,1,0-.71l.06-.1a6.28,6.28,0,0,0,1.43-3.31,2.48,2.48,0,0,0-.32-1.44,3.8,3.8,0,0,0-1.16-1.13c-1.82-1.15-3.81-2.22-5.72-3.25L109,30.84l-2.77-1.48c-3.9-2.08-7.93-4.23-11.87-6.42a154.88,154.88,0,0,1-14.27-8.75c-.58-.42-1.15-.85-1.71-1.31l-.86-.73c-.24-.22-.48-.43-.72-.62l-.78-.65-.77-.52a4.55,4.55,0,0,0-.76-.45l-.35-.17a3,3,0,0,0-.45-.21,5,5,0,0,0-1.9-.41,3.81,3.81,0,0,0-1.32.23,4.82,4.82,0,0,0-2.41,2.09,1.45,1.45,0,0,1-.45.47c-6.41,3.88-12.83,7.49-18.26,10.53l-9.21,5.08-8.86,4.8a137,137,0,0,1-6.87,15.57,49.31,49.31,0,0,1-4.52,7.25A46.24,46.24,0,0,1,16.55,59l-.91,1C15.1,60.52,3,72.18.94,73.31l-.13.06H.3Z"/><path class="a" d="M73.36,34.52c-4.44-1-9.41-7.89-9.62-8.19l.93-.65c0,.06,4.92,6.83,8.94,7.74Z"/><path class="a" d="M73.25,34.54a6.75,6.75,0,0,1-3.15-.91,12.08,12.08,0,0,1-2.71-2,15.66,15.66,0,0,1-2.15-2.5,12.29,12.29,0,0,1-1.57-2.94L63,24.39l1.52,1.17a45.21,45.21,0,0,1,3.6,3.17l1,1c.82.78,1.5,1.41,2.2,2a18.19,18.19,0,0,0,2.38,1.75l1.62.94-1.87.12Z"/><path class="a" d="M76.39,44.86C70.46,41.29,54.2,26,53.51,25.31l.78-.82c.17.16,16.86,15.89,22.68,19.4Z"/><path class="a" d="M76.44,44.89A39.08,39.08,0,0,1,70,40.78c-2.22-1.66-4.3-3.43-5.86-4.79-2.26-2-4-3.62-5.51-5.17-2.08-2.07-3.71-3.83-5.14-5.56l.77-.82c2.19,1.6,4.22,3.27,5.92,4.69,1.86,1.53,3.69,3.13,5.47,4.68l.91.81c1.64,1.45,3.28,2.91,4.9,4.39l1.43,1.28c1.35,1.21,2.74,2.47,4.17,3.65Z"/><path class="a" d="M214.79,62l-2.21-.33a15,15,0,0,1-1.47-.37l-.72-.21a10.91,10.91,0,0,1-1.43-.56l-.69-.31a11.44,11.44,0,0,1-1.35-.72l-.66-.39a32,32,0,0,1-6.14-5.49l-.51-.55c-1.76-1.94-3.75-4.12-6.21-5.37l-.35-.18a2.67,2.67,0,0,0-.51-.25l-1.47-.51-1.45-.28a41.76,41.76,0,0,0-4.19-.35c-.46,0-.92,0-1.38,0-.9,0-1.84,0-2.89.07l-.6,0c-.47,0-.95,0-1.44,0h-.34a4,4,0,0,1-2.53-.73,4.13,4.13,0,0,1-1.26-2.5c-.07-.34-.12-.68-.17-1s-.11-.75-.19-1.1a16.89,16.89,0,0,0-1.47-3.84,61.17,61.17,0,0,0-4.42-7.38c-1.63-2.4-3.35-4.75-5.11-7l-.35-.44.44-.44a.67.67,0,0,1,.4-.14h.26l.22.22c1.85,2.2,3.67,4.53,5.39,6.91a64.1,64.1,0,0,1,4.75,7.43,18.86,18.86,0,0,1,1.72,4.22c.11.45.19.88.26,1.29a7.88,7.88,0,0,0,.16.87,2.36,2.36,0,0,0,.61,1.36,2.41,2.41,0,0,0,1.35.24c.59,0,1.1,0,1.61-.07l.6,0c1.49-.11,2.83-.16,4.09-.16h.34a43.75,43.75,0,0,1,4.47.26l1.33.21.41.08,1.68.53a5.63,5.63,0,0,1,.76.33l.33.16a16.87,16.87,0,0,1,3.86,2.66c1,1,2,2,3.09,3.26a36.63,36.63,0,0,0,6,6A19.67,19.67,0,0,0,215,60.78l.51.12,0,.59a.63.63,0,0,1-.63.54Z"/><path class="a" d="M137.23,65.38l-.08,0a120.82,120.82,0,0,1-21.62-7.75A100.2,100.2,0,0,1,95.92,45.52a37.65,37.65,0,0,1-8.15-8.41,11.52,11.52,0,0,1-1.34-2.84l-.36-1.39a10.57,10.57,0,0,0-.46-1.17,26.59,26.59,0,0,0-2.94-4.63,82.05,82.05,0,0,0-7.56-8.36c-2.73-2.68-5.55-5.25-8.37-7.65a.63.63,0,0,1-.09-.89l.17-.21.33,0a.62.62,0,0,1,.39.14c2.93,2.34,5.84,4.86,8.67,7.5a83.28,83.28,0,0,1,7.94,8.34,28.29,28.29,0,0,1,3.26,4.93A12.39,12.39,0,0,1,88,32.28l.4,1.42A9.72,9.72,0,0,0,89.53,36a37,37,0,0,0,7.83,7.73,123.39,123.39,0,0,0,19.32,11.55,201.7,201.7,0,0,0,20.84,8.89l.22.08.14.26a.6.6,0,0,1,0,.49l-.14.37-.46,0Z"/><path class="a" d="M249,70.84c-.2-.43-1-.64-1.28-.72L245,69.18a18,18,0,0,1-2.22-.88l-.52-.24-.94-.42c-.58-.25-1.17-.51-1.74-.81a111.32,111.32,0,0,1-19.39-13.11c-4.69-3.81-9.25-7.92-13.66-11.88l-4-3.57A57.38,57.38,0,0,0,198,34.55l-.42-.25a6.09,6.09,0,0,0-.85-.48l-.3-.12a5.48,5.48,0,0,0-1.06-.35,5,5,0,0,0-3,.06,8.88,8.88,0,0,0-2.51,1.53,4.76,4.76,0,0,1-2.54,1.29,1.83,1.83,0,0,1-.61,0,1.24,1.24,0,0,1-.4-.11,1.29,1.29,0,0,1-.32-.18,6,6,0,0,1-1-.91c-.67-.72-1.3-1.54-1.84-2.25l-1.6-2.17a61.62,61.62,0,0,0-5.69-7A14.1,14.1,0,0,0,171,20.15a5.59,5.59,0,0,0-3-.29,8.19,8.19,0,0,0-2.05.76l-.74.35c-3.48,1.78-6.88,3.81-10.18,5.77s-6.66,4-10,6.11l-9.9,6.29-9.78,6.44-.63-.94,9.8-6.45,9.9-6.29c3.34-2.12,6.79-4.2,10-6.14s6.73-4,10.28-5.82l.73-.34a8.84,8.84,0,0,1,2.33-.85,6.82,6.82,0,0,1,3.57.33,15.24,15.24,0,0,1,5.24,3.66,62.35,62.35,0,0,1,5.81,7.16L184,32.05c.52.69,1.13,1.49,1.76,2.17a5.08,5.08,0,0,0,.83.74l.24.13c.16,0,.28,0,.33,0a4.07,4.07,0,0,0,1.95-1.06A10,10,0,0,1,192,32.34a6.15,6.15,0,0,1,3.59-.1,6.34,6.34,0,0,1,1.23.41l.32.12a7.41,7.41,0,0,1,1,.57l.43.26a57,57,0,0,1,4.69,3.82l4,3.57c4.41,4,9,8,13.62,11.85a110.62,110.62,0,0,0,19.2,13c.55.29,1.12.54,1.67.78l1,.43.51.23a17.34,17.34,0,0,0,2.1.84l2.77.94a2.94,2.94,0,0,1,2,1.33Z"/><path class="b" d="M248.83,71.34l-.15-.34c-.06-.13-.29-.32-1-.51l-2.81-1a16.19,16.19,0,0,1-2.25-.89l-.52-.23L241.2,68l-.08,0c-.55-.24-1.17-.51-1.77-.83A112.77,112.77,0,0,1,219.9,54c-4.68-3.81-9.24-7.91-13.64-11.87l-4-3.59a58.35,58.35,0,0,0-4.52-3.69l-.35-.21a7.22,7.22,0,0,0-.85-.49l-.29-.11a6.47,6.47,0,0,0-1-.34,4.85,4.85,0,0,0-2.76,0,8.84,8.84,0,0,0-2.41,1.47,5,5,0,0,1-2.76,1.38,2.12,2.12,0,0,1-.69,0,2.11,2.11,0,0,1-.87-.36,5.71,5.71,0,0,1-1.07-1c-.68-.74-1.32-1.57-1.86-2.29s-1.08-1.44-1.61-2.17a62.24,62.24,0,0,0-5.66-7,13.7,13.7,0,0,0-4.69-3.3,5.3,5.3,0,0,0-2.77-.27,7.47,7.47,0,0,0-1.95.73l-.76.35c-3.45,1.77-6.84,3.79-10.13,5.75s-6.65,4-10,6.11l-9.89,6.29-10.1,6.64-1-1.57,10.11-6.65,9.91-6.3c3.34-2.12,6.79-4.2,10-6.14s6.74-4,10.29-5.83c.28-.12.5-.23.72-.34a9.53,9.53,0,0,1,2.45-.89,7.2,7.2,0,0,1,3.77.35,15.46,15.46,0,0,1,5.37,3.74,63.89,63.89,0,0,1,5.85,7.21l1.59,2.15A25.41,25.41,0,0,0,186.07,34a4.3,4.3,0,0,0,.75.68l.14.08h.22a4,4,0,0,0,1.73-1,10.34,10.34,0,0,1,3-1.78,6.52,6.52,0,0,1,3.8-.1,6.19,6.19,0,0,1,1.28.42l.32.12a8.52,8.52,0,0,1,1.07.6l.42.26a57.37,57.37,0,0,1,4.75,3.86l4,3.57c4.42,4,9,8.06,13.61,11.84a110.5,110.5,0,0,0,19.14,12.94c.54.29,1.13.55,1.64.77l1,.43.51.23a15.1,15.1,0,0,0,2.05.82l2.78.94a3.24,3.24,0,0,1,2.21,1.53l.16.34Z"/><rect class="a" x="93.42" y="2.57" width="1.13" height="21.17" transform="translate(24.71 78.01) rotate(-51.08)"/><path class="a" d="M101.91,20.28a99.78,99.78,0,0,1-8.6-6.3,96.86,96.86,0,0,1-8-7.08l.7-.87a99.79,99.79,0,0,1,8.6,6.29,101,101,0,0,1,8,7.08Z"/><rect class="a" x="98.59" y="5.37" width="1.13" height="14.84" transform="translate(21.39 75.63) rotate(-46.29)"/><path class="a" d="M104.2,18.39a50.49,50.49,0,0,1-5.78-4.83A48.39,48.39,0,0,1,93.34,8l.77-.8A49,49,0,0,1,99.89,12,49.16,49.16,0,0,1,105,17.58Z"/><rect class="a" x="103.91" y="8.53" width="1.13" height="8.44" transform="translate(21.8 77.9) rotate(-45.19)"/><path class="a" d="M107.2,16.23a17.42,17.42,0,0,1-3.47-2.71A17.13,17.13,0,0,1,101,10.06l-1-1.75,1.76,1A16.86,16.86,0,0,1,105.23,12,17.06,17.06,0,0,1,108,15.45l1,1.76Z"/><rect class="a" x="104.52" y="-1.2" width="1.13" height="17.29" transform="translate(15.03 62.11) rotate(-35.31)"/><path class="a" d="M109.67,14.89a68.88,68.88,0,0,1-5.45-6.83A68.15,68.15,0,0,1,99.59.65l.92-.65A66.08,66.08,0,0,1,106,6.83a66.1,66.1,0,0,1,4.63,7.41Z"/><rect class="a" x="139.23" y="9.59" width="11.63" height="1.13" transform="translate(53.38 123.03) rotate(-54.93)"/><path class="a" d="M141.19,14.7a31,31,0,0,1,3-5.15A30.69,30.69,0,0,1,148,5l.9.64a30.25,30.25,0,0,1-3,5.14,31.26,31.26,0,0,1-3.82,4.57Z"/><rect class="a" x="141.97" y="10.97" width="13.51" height="1.13" transform="translate(41.58 115.33) rotate(-48.53)"/><path class="a" d="M143.77,16.3a40.35,40.35,0,0,1,4.15-5.46A40.38,40.38,0,0,1,152.85,6l.83.74a41.21,41.21,0,0,1-4.16,5.46A41,41,0,0,1,144.6,17Z"/><rect class="a" x="148.12" y="18.5" width="10.2" height="1.13" transform="translate(14.73 87.34) rotate(-33.33)"/><path class="a" d="M148.55,21.48a24.57,24.57,0,0,1,4.09-3.3,24.1,24.1,0,0,1,4.65-2.45l.61.92A23.63,23.63,0,0,1,153.82,20a24.48,24.48,0,0,1-4.66,2.44Z"/><rect class="a" x="149.14" y="18.33" width="21.41" height="1.13" transform="translate(11.42 81.16) rotate(-29.5)"/><path class="a" d="M150.19,23.71A114.94,114.94,0,0,1,169,13.11l.55,1a99.69,99.69,0,0,1-9.13,5.74,102.26,102.26,0,0,1-9.62,4.86Z"/><path class="a" d="M106.54,26.69A12.11,12.11,0,0,1,108.08,24a17.38,17.38,0,0,1,2-2.3,14.67,14.67,0,0,1,2.48-1.89,10.15,10.15,0,0,1,2.88-1.25l.51,1c-.32.26-.63.51-.95.75s-.89.7-1.33,1.07l-.18.16c-.68.58-1.32,1.12-1.94,1.72-1,.89-1.85,1.8-2.8,2.75l-1.33,1.34Z"/><path class="a" d="M145.93,30.56c-.36-.46-.7-.94-1-1.4s-.52-.74-.79-1.1c-.54-.74-1.14-1.52-1.85-2.38s-1.27-1.51-1.92-2.23c-.81-.87-1.48-1.57-2.16-2.23l.61-.93A10.58,10.58,0,0,1,141.61,22a16.12,16.12,0,0,1,2.3,2.3,15.53,15.53,0,0,1,3,5.75Z"/><path class="a" d="M142.47,31.68a23,23,0,0,1-1.86-2.24l-.4-.5-.18-.25A26.45,26.45,0,0,1,138.2,26l-.79-1.42,1.51.62a6.41,6.41,0,0,1,1.68,1.08,9.52,9.52,0,0,1,1.31,1.4,7.41,7.41,0,0,1,1.53,3.59l.18,1.66Z"/><path class="a" d="M204.16,69.42a10.23,10.23,0,0,1,2.22-2.34c.34-.27.79-.6,1.26-.91l.63-.4a7.47,7.47,0,0,0,.64-.4l1.13-.78-.25,1.35a3.75,3.75,0,0,1-.88,1.65,9,9,0,0,1-1.18,1.14,8.18,8.18,0,0,1-2.95,1.55l-1.4.36Z"/><path class="a" d="M201.7,77a23.25,23.25,0,0,1,3.3-3.06c.58-.46,1.16-.9,1.74-1.33l.47-.35a8.9,8.9,0,0,0,1.14-1l1.38-1.44-.41,2A5.12,5.12,0,0,1,208,74a14.79,14.79,0,0,1-1.7,1.59,14.39,14.39,0,0,1-4,2.3l-2,.7Z"/><path class="a" d="M234.77,73.83a5.11,5.11,0,0,1-1.92-.46,10.67,10.67,0,0,1-1.74-1,11,11,0,0,1-2.86-2.8l-1-1.49,1.66.65a17.1,17.1,0,0,1,3.37,1.87l.16.11c.46.33.91.65,1.35,1l.44.33c.33.25.65.5,1,.73l1.42.91-1.68.14Z"/><path class="a" d="M235.64,78.26a6,6,0,0,1-1.3-.17,9.4,9.4,0,0,1-1.5-.5,8.22,8.22,0,0,1-2.7-1.83l-1-1,1.42.09a10,10,0,0,1,3.07.81,11.9,11.9,0,0,1,2.7,1.61l1,.86-1.35.15Z"/></svg>