<svg xmlns="http://www.w3.org/2000/svg" viewBox="0 0 554.89 199.07"><defs><style>.a{fill:#fff;}.b{isolation:isolate;}</style></defs><path class="a" d="M381.07,117.22c-1.5.93-4.24,2.62-7,4.29-8,4.86-16.3,4.29-24.74,1.57-5.48-1.77-7.53-5.88-7.06-11.86-7.14.13-13.61-1.18-18.49-7.13-1.76,2.3-3.21,4.14-4.59,6-5.72,7.78-13.65,10.24-22.88,9.42-4.33-.39-6.07-3.53-7-6.89-6.56,2.63-13,5.38-19.61,7.83-4.81,1.78-10.13,3.25-14.33-.7s-3-9.28-1.93-14.3c.2-.93.43-1.86.77-3.26-10.39,1.83-20.47,3-30.55-.64-2.15,3.54-4.15,7.19-6.47,10.61-4,6-9.53,9.09-16.9,7.5-4.36-.94-7.5,1.42-10.76,3.44-2.14,1.33-3.95,3.16-6.09,4.49-6,3.72-9.88,2.81-14-3.51-2.53,1.14-5.09,2.5-7.79,3.46-3.27,1.17-6.6,2.6-10,2.88-7.09.57-11.61-3.78-12.08-10.93-.16-2.48,0-5,0-8.84-4.27,1.84-7.69,2.92-10.69,4.69C119.08,121.14,109.32,127,102,136a17.7,17.7,0,0,1-4.25,4,35.67,35.67,0,0,1-5.94,2.41c-.09-2.62-1.16-5.81,0-7.72,2-3.41,4.83-6.87,8.18-8.83,9.87-5.78,14.17-15.14,17.78-25.13,1.13-3.12,2.06-6.31,3.32-10.2-6.27,3.56-11.64,7-17.32,9.78-15.19,7.51-30.22,16-47.41,17.59-10.93,1-22.08.08-33.09-.58a67,67,0,0,1-17.16-3.2c-5.72-1.92-7-5.51-5.57-11.34.62-2.51,2.18-3.87,4.55-2C22.74,114.66,42.77,113.38,62.7,109c21.11-4.69,40.2-14.49,57.61-27.31a12.18,12.18,0,0,0,4.2-7.15c2.07-11.87,4.84-23.47,12.84-32.86a80.32,80.32,0,0,1,13.46-12.53c4.68-3.47,8.52-1.34,9.61,4.37a21.88,21.88,0,0,1-3.84,16.79,207.22,207.22,0,0,1-19.05,23.91c-6.15,6.51-11.79,12.71-13.17,22.1-.78,5.27-3.26,10.29-5.36,16.55,3.1-1.87,5.23-3.3,7.48-4.48a56.24,56.24,0,0,1,8-3.66c5.65-1.9,8.59.17,9,6.14.17,2.23,0,4.49.11,6.73.13,4.44,1.43,6,5.86,5.66,3-.22,5.86-1.48,8.76-2.38,1.05-.33,2-1.16,3-1.44,6.13-1.64,10.26-5,12.72-11.23,3.25-8.2,12.93-11.55,19.2-4.14a45.73,45.73,0,0,1,5.47,7.44c5.47,2.15,10.67.85,14.2-4.4,3.07-4.59,5.55-9.57,8.31-14.41,12.11,7.43,24.63,3.18,37.13.83,2.92-.55,6.18-1.86,8.15,1.88,1.1,2.07,1.32,3.72-1.26,5.21-5.16,3-7.4,7.72-7.46,13.93,1.31.15,2.45.58,3.43.35,10.24-2.4,20.55-4.79,27.67-13.46,1.42-1.73,1.68-4.37,2.86-6.37.68-1.16,2.12-1.89,3.21-2.82.84,1.17,2.47,2.4,2.37,3.49a51.06,51.06,0,0,1-2,10.14c-1.7,5.77-1.16,6.76,4.9,6.53s11.43-2.5,15.19-7.58c2.9-3.9,5.67-7.9,9.06-12.63,1.12,2.12,2.45,3.48,2.46,4.86.05,4.47,3.05,5.91,6.47,6.37,7.17,1,14,.09,19.26-5.65,2.76-3,5.63-5.86,8.35-8.88a7.48,7.48,0,0,1,9.16-2c3.43,1.63,2.7,5.38,2.13,8.3-1.59,8.12-13.74,17.19-21.93,16.89-1,0-2.05,1-3.07,1.6.69.88,1.2,2.25,2.08,2.57,8.25,3,16.16,2.44,23.57-2.58,8.5-5.75,16.61-12,22.68-20.38,1.86-2.57,3.15-5.55,4.92-8.73,6.8,2.72,4.81,9.15,6.17,14.13,1.92,7-3.16,10.1-7.87,13.89,6-.33,7.65-1.74,23.45-19.87-1.11-3.15-2.74-5.76-2.82-8.41-.17-5.69,1-6.49,6.62-6.24a8.43,8.43,0,0,1,1.67.13c4.12.93,8.16,1.71,9.82-3.87,1.34.67,2.63.88,3,1.56,2.43,4.86,6.83,3.79,10.89,3.89,1.25,0,2.87-.23,3.67.43,1.33,1.1,2.75,2.77,2.92,4.33.09.88-2.17,2.72-3.53,2.89-3.31.43-6.71.11-10.08.14-5.51.06-6.5.65-6.92,6.05-.25,3.23-2,7.15,1.58,9.68,2.52,1.79,12.17.71,14.46-1.33,3.55-3.17,6.94-6.52,10.54-9.62,7.72-6.65,15.31-13.47,23.37-19.68,8.37-6.44,18.27-9.87,28.65-11.15,11.39-1.4,22.88-2,34.32-2.88,2.22-.17,4.39-.16,4.48,2.9s-1.47,4.34-4.37,4.43c-6.72.22-13.46.25-20.16.76-13.83,1.06-27.37,3.51-38.71,12.22-8.1,6.23-15.77,13-23.56,19.63-2.66,2.27-5,4.93-7.65,7.21-7.23,6.19-20.17,5.7-26.64-1.3-1.92-2.08-2.74-5.19-4.26-8.22-1,1-2.34,2.13-3.53,3.41-4.5,4.82-8.86,9.76-13.45,14.49a19.26,19.26,0,0,1-16.76,6c-1.81-.2-3.68,0-5.45-.4C387.56,119.12,384.85,118.25,381.07,117.22ZM156.57,35.85C146.48,35,128.22,61.13,130.81,72.3,141,61.21,152.69,51.59,156.57,35.85Zm16.65,84.54c2.26.9,3.77,2.07,4.54,1.7A50,50,0,0,0,186.3,117c1.76-1.31,4.22-2.91,1.62-5.73-2.06-2.25-6.67-3.37-8.27-1.38C177.38,112.69,175.79,116.08,173.22,120.39Zm189.42-20.27c4.06-1.14,7.2-5.65,6.19-8a2.85,2.85,0,0,0-2.21-1.55c-1.18-.13-2.17.65-3.54,2-3.17,3.12-5.84,5.73-5.09,7.08C358.6,100.77,361.15,100.53,362.64,100.12Zm27,8.63c.52,1.11,5.93.71,9.51-2.44,2.68-2.35,4.59-6.48,3.32-8-.64-.75-2-.71-3.32-.45h0c-2,2.21-3.94,4.46-6,6.64C390.05,107.91,389.44,108.33,389.64,108.75Z"/><g class="b"><g class="b"><path class="a" d="M173.37,177.31l-1,8.15a5.86,5.86,0,0,1,1.47-.85,4.36,4.36,0,0,1,1.42-.23,4.1,4.1,0,0,1,3.1,1.29,4.57,4.57,0,0,1,1.22,3.27,5.05,5.05,0,0,1-1.39,3.62,4.55,4.55,0,0,1-3.41,1.46,4.45,4.45,0,0,1-3.28-1.44l-.16,1.23h-2.15l2-16.5Zm4,11.67a2.85,2.85,0,0,0-.73-2,2.51,2.51,0,0,0-1.91-.78,2.69,2.69,0,0,0-2.1.94,3.41,3.41,0,0,0-.83,2.37,2.71,2.71,0,0,0,.71,2,2.44,2.44,0,0,0,1.86.77,2.75,2.75,0,0,0,2.12-.95A3.24,3.24,0,0,0,177.41,189Z"/><path class="a" d="M195.06,184.61l-8.33,14.46h-2.46l3.7-6.4-3.29-8.06H187l2.28,5.88,3.33-5.88Z"/><path class="a" d="M217.7,185.5l-.27,2.2a5.31,5.31,0,0,0-1.27-1.23,2.69,2.69,0,0,0-1.41-.36,2.58,2.58,0,0,0-2,.91,3.42,3.42,0,0,0-.79,2.34,3,3,0,0,0,.74,2.13,2.53,2.53,0,0,0,1.94.81,3.82,3.82,0,0,0,2.37-1l-.29,2.27a6.26,6.26,0,0,1-2.38.51,4.36,4.36,0,0,1-3.29-1.32,4.75,4.75,0,0,1-1.26-3.42,5,5,0,0,1,1.36-3.6,4.46,4.46,0,0,1,3.4-1.45A5,5,0,0,1,217.7,185.5Z"/><path class="a" d="M233.1,184.61l-1.14,9.2H229.8l.13-1a4.31,4.31,0,0,1-2.87,1.21,3.87,3.87,0,0,1-3-1.24,4.51,4.51,0,0,1-1.15-3.21,5.33,5.33,0,0,1,1.32-3.73,4.44,4.44,0,0,1,3.43-1.46,3.93,3.93,0,0,1,1.68.33,4.67,4.67,0,0,1,1.43,1.11l.15-1.21ZM230.47,189a2.86,2.86,0,0,0-.7-2,2.37,2.37,0,0,0-1.82-.77,2.57,2.57,0,0,0-2,.95,3.46,3.46,0,0,0-.82,2.34,2.88,2.88,0,0,0,.68,2,2.24,2.24,0,0,0,1.76.78,2.71,2.71,0,0,0,2.06-1A3.4,3.4,0,0,0,230.47,189Z"/><path class="a" d="M242.26,184.61l-.12,1a4.47,4.47,0,0,1,2.94-1.2,4.05,4.05,0,0,1,3.06,1.28,4.53,4.53,0,0,1,1.22,3.24,5.1,5.1,0,0,1-1.4,3.65,4.53,4.53,0,0,1-3.44,1.47,3.92,3.92,0,0,1-1.73-.33,5,5,0,0,1-1.5-1.2l-.81,6.58h-2.15l1.77-14.46ZM247.2,189a2.87,2.87,0,0,0-.7-2,2.29,2.29,0,0,0-1.8-.79,2.82,2.82,0,0,0-2.18,1,3.33,3.33,0,0,0-.88,2.35,2.61,2.61,0,0,0,.74,2,2.54,2.54,0,0,0,1.91.77,2.69,2.69,0,0,0,2.07-.94A3.39,3.39,0,0,0,247.2,189Z"/><path class="a" d="M264.86,184.61l-8.33,14.46h-2.47l3.71-6.4-3.3-8.06h2.31l2.27,5.88,3.33-5.88Z"/><path class="a" d="M278,191.81l-.24,2h-9.45l6.16-7.2h-4.62l.24-2h8.68l-6.2,7.2Z"/><path class="a" d="M293.92,189.12a4.77,4.77,0,0,1-1.47,3.55,4.91,4.91,0,0,1-3.59,1.43,5,5,0,0,1-3.65-1.36,4.58,4.58,0,0,1-1.43-3.45,4.72,4.72,0,0,1,1.48-3.56,5.13,5.13,0,0,1,3.71-1.42,4.88,4.88,0,0,1,3.56,1.34A4.59,4.59,0,0,1,293.92,189.12Zm-2.18-.11a2.83,2.83,0,0,0-.77-2.1,2.69,2.69,0,0,0-2-.8,2.86,2.86,0,0,0-2.15.89,3.14,3.14,0,0,0-.85,2.26,3,3,0,0,0,.8,2.19,2.72,2.72,0,0,0,2.07.85,2.64,2.64,0,0,0,2.09-.92A3.38,3.38,0,0,0,291.74,189Z"/><path class="a" d="M308.85,184.61l-.66,5.35a9.93,9.93,0,0,1-.19,1.19,6.27,6.27,0,0,1-.26.85,2.78,2.78,0,0,1-.91,1.16A4.49,4.49,0,0,1,304,194a4,4,0,0,1-2.72-.87,2.94,2.94,0,0,1-1-2.35c0-.15,0-.33,0-.53s0-.43.07-.69l.61-5h2.16l-.64,5.17c0,.22,0,.41-.06.58s0,.3,0,.41c0,1,.57,1.46,1.71,1.46a1.77,1.77,0,0,0,1.37-.48,3.11,3.11,0,0,0,.59-1.68l.67-5.46Z"/><path class="a" d="M328.1,186.61l-.88,7.2h-2.16l.89-7.2h-1.41l.25-2h1.4l.51-4.11a4.31,4.31,0,0,1,.89-2.41,2.5,2.5,0,0,1,2-.78,4.43,4.43,0,0,1,1.83.5l-.24,1.9a1.8,1.8,0,0,0-1.11-.49,1,1,0,0,0-.87.4,3.89,3.89,0,0,0-.4,1.47l-.43,3.52h1.95l-.24,2Z"/><path class="a" d="M345.41,184.61l-1.13,9.2h-2.16l.12-1a4.31,4.31,0,0,1-2.87,1.21,3.89,3.89,0,0,1-3-1.24,4.56,4.56,0,0,1-1.15-3.21,5.33,5.33,0,0,1,1.32-3.73,4.44,4.44,0,0,1,3.43-1.46,3.87,3.87,0,0,1,1.68.33,4.44,4.44,0,0,1,1.43,1.11l.15-1.21ZM342.78,189a2.81,2.81,0,0,0-.7-2,2.37,2.37,0,0,0-1.82-.77,2.59,2.59,0,0,0-2,.95,3.46,3.46,0,0,0-.82,2.34,2.88,2.88,0,0,0,.68,2,2.25,2.25,0,0,0,1.76.78,2.69,2.69,0,0,0,2.06-1A3.4,3.4,0,0,0,342.78,189Z"/><path class="a" d="M354.58,184.61l-.09.79a3.24,3.24,0,0,1,2.2-1,2.6,2.6,0,0,1,1.78.72l-1.38,1.78a1.82,1.82,0,0,0-1.19-.51,1.53,1.53,0,0,0-.72.16,1.45,1.45,0,0,0-.54.51,2.94,2.94,0,0,0-.38.89,8.86,8.86,0,0,0-.24,1.31l-.57,4.59h-2.16l1.14-9.2Z"/><path class="a" d="M366.49,184.61l-.09.86a3.47,3.47,0,0,1,2.53-1.1,2.29,2.29,0,0,1,1.33.33,2.42,2.42,0,0,1,.84,1.14,4,4,0,0,1,2.95-1.46c1.83,0,2.74.84,2.74,2.51,0,.17,0,.41-.05.72s-.07.68-.12,1.13l-.62,5.07h-2.16l.66-5.32a10.19,10.19,0,0,0,.09-1.1,1.06,1.06,0,0,0-1.21-1.2,2.29,2.29,0,0,0-.83.14,1.47,1.47,0,0,0-.6.44,2.43,2.43,0,0,0-.41.77,6.14,6.14,0,0,0-.25,1.13l-.63,5.14h-2.15l.67-5.46a10.19,10.19,0,0,0,.09-1c0-.76-.42-1.14-1.24-1.14q-1.8,0-2.1,2.49l-.64,5.13h-2.16l1.14-9.2Z"/></g></g><path class="a" d="M309.38,29c-2.13-9.65-11.09-16.06-22.83-16.34-9.86-.25-19.1,5.12-22.87,13.32l-1-.47c4-8.74,13.44-14.22,23.93-14,12.28.29,21.66,7.05,23.91,17.23Z"/><path class="a" d="M173.32,61.83l-.22-.34a.63.63,0,0,1,.24-.85,12.93,12.93,0,0,0,3.06-2.73,30.24,30.24,0,0,0,2.5-3.41A74.15,74.15,0,0,0,183,47c1.18-2.42,2.32-5,3.49-7.88,1.25-3.07,2.22-5.63,3.06-8a1.17,1.17,0,0,1,.54-.66L208.45,20.1q2.72-1.55,5.45-3.07c4.13-2.32,8.4-4.72,12.54-7.15a7.48,7.48,0,0,1,1.4-1.6A6.23,6.23,0,0,1,230,7a6.14,6.14,0,0,1,2.08-.36,7.2,7.2,0,0,1,2.84.6,3.19,3.19,0,0,1,.7.33l.32.16a5.63,5.63,0,0,1,1,.62l.88.61.86.74c.28.22.53.45.78.68s.5.45.77.66c.51.44,1,.85,1.58,1.25a152.47,152.47,0,0,0,14,8.74c3.89,2.21,7.89,4.4,11.76,6.51l2.77,1.51,1.48.82c1.91,1.05,3.89,2.13,5.79,3.36A5.79,5.79,0,0,1,279.39,35a4.48,4.48,0,0,1,.58,2.56,7.32,7.32,0,0,1-1.18,3.36L281,42.1c2.32,1.21,4.72,2.46,7.1,3.64,3.8,1.9,7.21,3.54,10.44,5,4.05,1.87,7.42,3.33,10.62,4.6a63.89,63.89,0,0,0,10.93,3.48l.22,0,.18.21a.63.63,0,0,1,.11.48l-.08.48-.57.06h-.09a64.65,64.65,0,0,1-11.22-3.41c-3.24-1.24-6.66-2.67-10.75-4.49-3.29-1.47-6.74-3.08-10.55-4.92-2.41-1.16-4.84-2.39-7.18-3.57L277,42.09a.94.94,0,0,1-.47-.53.92.92,0,0,1,.06-.71l.05-.1a6.3,6.3,0,0,0,1.44-3.31,2.56,2.56,0,0,0-.32-1.44,3.83,3.83,0,0,0-1.17-1.13c-1.83-1.16-3.81-2.22-5.73-3.26l-1.44-.77-2.77-1.48c-3.9-2.08-7.93-4.23-11.86-6.42a156.34,156.34,0,0,1-14.28-8.75c-.58-.42-1.15-.85-1.7-1.31-.29-.22-.58-.48-.86-.73s-.49-.43-.73-.62l-.77-.65-.78-.52a4.13,4.13,0,0,0-.75-.45l-.35-.17a2.72,2.72,0,0,0-.46-.21,4.86,4.86,0,0,0-1.9-.41,3.86,3.86,0,0,0-1.32.23,4.86,4.86,0,0,0-2.41,2.09,1.27,1.27,0,0,1-.45.47c-6.41,3.88-12.83,7.5-18.26,10.53l-9.2,5.08-8.86,4.8a136,136,0,0,1-6.88,15.57,63.22,63.22,0,0,1-4.53,7.55,31,31,0,0,1-2.78,3.46A14.34,14.34,0,0,1,174,61.76l-.13.06h-.52Z"/><path class="a" d="M233.72,34.52c-4.44-1-9.4-7.89-9.61-8.19l.92-.65c.05.06,4.92,6.83,8.94,7.74Z"/><path class="a" d="M233.61,34.54a6.65,6.65,0,0,1-3.15-.92,11.72,11.72,0,0,1-2.71-2,15.59,15.59,0,0,1-2.14-2.5A12,12,0,0,1,224,26.19l-.63-1.8,1.51,1.17a43.7,43.7,0,0,1,3.61,3.17l1,1c.81.78,1.49,1.41,2.2,2a17.45,17.45,0,0,0,2.37,1.75l1.62.94-1.87.12Z"/><path class="a" d="M236.75,44.86c-5.92-3.57-22.18-18.9-22.87-19.55l.78-.82c.16.16,16.86,15.89,22.68,19.4Z"/><path class="a" d="M236.8,44.89a39.5,39.5,0,0,1-6.46-4.11c-2.22-1.67-4.3-3.44-5.85-4.79-2.26-2-4-3.6-5.51-5.17-2.08-2.07-3.72-3.83-5.15-5.56l.77-.82c2.2,1.61,4.23,3.27,5.93,4.69s3.66,3.11,5.42,4.64l1,.85c1.64,1.45,3.28,2.91,4.89,4.39l1.44,1.28c1.34,1.21,2.73,2.47,4.16,3.65Z"/><path class="a" d="M375.15,62l-2.21-.33a15,15,0,0,1-1.47-.37l-.72-.21a10.91,10.91,0,0,1-1.43-.56l-.69-.31a11.44,11.44,0,0,1-1.35-.72l-.66-.39a32.28,32.28,0,0,1-6.13-5.49L360,53.1c-1.76-1.94-3.75-4.12-6.21-5.37l-.35-.19a3,3,0,0,0-.51-.24l-1.46-.51L350,46.51a42,42,0,0,0-4.2-.35c-.45,0-.91,0-1.38,0-.89,0-1.84,0-2.88.07l-.61,0c-.47,0-.94,0-1.43,0h-.34a4,4,0,0,1-2.54-.73,4.13,4.13,0,0,1-1.26-2.5c-.07-.34-.12-.68-.16-1s-.11-.75-.19-1.1a17.45,17.45,0,0,0-1.48-3.84,62.27,62.27,0,0,0-4.41-7.38c-1.64-2.4-3.36-4.75-5.12-7l-.14-.18v-.27l0-.23.2-.2a.68.68,0,0,1,.41-.14h.26l.22.22c1.85,2.2,3.66,4.53,5.39,6.91a65.46,65.46,0,0,1,4.75,7.43,19.14,19.14,0,0,1,1.72,4.22c.11.45.18.87.25,1.28s.1.6.16.88a2.36,2.36,0,0,0,.61,1.36,2.41,2.41,0,0,0,1.35.24c.59,0,1.1,0,1.61-.07l.6,0c1.5-.11,2.84-.16,4.09-.16h.34a43.59,43.59,0,0,1,4.47.26l1.33.21.41.08,1.68.53a5.63,5.63,0,0,1,.76.33l.34.16a17,17,0,0,1,3.85,2.66c1,1,2,2,3.1,3.26a35.86,35.86,0,0,0,6,6,19.77,19.77,0,0,0,7.58,3.34l.51.12v.59a.64.64,0,0,1-.63.54Z"/><path class="a" d="M297.6,65.38l-.09,0a121,121,0,0,1-21.61-7.75,100.28,100.28,0,0,1-19.62-12.09,39,39,0,0,1-8.15-8.41,11.69,11.69,0,0,1-1.34-2.84l-.36-1.39a9.84,9.84,0,0,0-.46-1.17A26,26,0,0,0,243,27.08a83,83,0,0,0-7.55-8.36c-2.74-2.68-5.56-5.26-8.38-7.65a.62.62,0,0,1-.08-.89l.17-.21.32,0a.63.63,0,0,1,.4.14c2.93,2.35,5.84,4.87,8.66,7.5a83.28,83.28,0,0,1,7.94,8.34,27.73,27.73,0,0,1,3.26,4.93,12.08,12.08,0,0,1,.6,1.43l.39,1.42A9.4,9.4,0,0,0,249.9,36a36.73,36.73,0,0,0,7.82,7.73A123,123,0,0,0,277,55.23a199.65,199.65,0,0,0,20.85,8.9l.22.08.14.26a.64.64,0,0,1,0,.49l-.14.37-.47,0Z"/><path class="a" d="M410.05,70.81a1.72,1.72,0,0,0-.27-.52,2,2,0,0,0-1.08-.67l-2.79-1a17.67,17.67,0,0,1-2.22-.88l-.51-.23-.95-.42c-.57-.25-1.16-.51-1.73-.81a111.85,111.85,0,0,1-19.4-13.12c-4.69-3.81-9.25-7.92-13.67-11.89l-4-3.55a54.87,54.87,0,0,0-4.55-3.72l-.43-.26a7.19,7.19,0,0,0-.84-.48l-.3-.12a6.26,6.26,0,0,0-1.06-.35,5.1,5.1,0,0,0-3,.06,9.11,9.11,0,0,0-2.51,1.53,4.85,4.85,0,0,1-2.54,1.3,1.66,1.66,0,0,1-.62,0,1,1,0,0,1-.39-.11,1.14,1.14,0,0,1-.32-.18,5.49,5.49,0,0,1-1-.9c-.67-.73-1.3-1.55-1.84-2.26s-1.07-1.44-1.6-2.17a62.62,62.62,0,0,0-5.69-7A14.06,14.06,0,0,0,332,19.65a5.68,5.68,0,0,0-3-.3,7.84,7.84,0,0,0-2.05.77l-.74.34c-3.49,1.79-6.89,3.82-10.18,5.77s-6.66,4-10,6.12l-9.89,6.29-9.79,6.44a.49.49,0,0,0,.16-.66l-1,.58a.64.64,0,0,1,.2-.86l9.79-6.45,9.9-6.3c3.34-2.12,6.79-4.2,10-6.13s6.72-4,10.27-5.82l.74-.34a8.9,8.9,0,0,1,2.32-.86,6.83,6.83,0,0,1,3.58.34,15.09,15.09,0,0,1,5.24,3.65,65.16,65.16,0,0,1,5.8,7.16c.53.73,1.06,1.45,1.6,2.16s1.13,1.48,1.76,2.16a5.16,5.16,0,0,0,.83.75l.23.13c.16,0,.28,0,.34,0a4,4,0,0,0,1.95-1.05A10,10,0,0,1,353,31.83a6.15,6.15,0,0,1,3.59-.09,6.55,6.55,0,0,1,1.23.4l.32.13a8.64,8.64,0,0,1,1,.56l.43.27a56.19,56.19,0,0,1,4.69,3.82l4,3.56c4.41,4,9,8.06,13.63,11.85a110.74,110.74,0,0,0,19.2,13c.54.29,1.11.54,1.66.78.32.14.65.28,1,.43l.52.23a16.06,16.06,0,0,0,2.1.83l2.77.94a3.09,3.09,0,0,1,1.66,1.09,2.69,2.69,0,0,1,.44.84Z"/><rect class="a" x="253.78" y="2.57" width="1.13" height="21.17" transform="translate(84.33 202.78) rotate(-51.08)"/><path class="a" d="M262.28,20.28a99.78,99.78,0,0,1-8.6-6.3,97.12,97.12,0,0,1-8-7.08l.71-.87a99.79,99.79,0,0,1,8.6,6.29,102.77,102.77,0,0,1,8,7.08Z"/><rect class="a" x="258.95" y="5.37" width="1.13" height="14.84" transform="translate(70.94 191.55) rotate(-46.29)"/><path class="a" d="M264.56,18.39a50.49,50.49,0,0,1-5.78-4.83A49.31,49.31,0,0,1,253.7,8l.78-.8A47.71,47.71,0,0,1,260.25,12a49.12,49.12,0,0,1,5.09,5.56Z"/><rect class="a" x="264.28" y="8.53" width="1.13" height="8.44" transform="translate(69.16 191.67) rotate(-45.19)"/><path class="a" d="M267.56,16.23a17.06,17.06,0,0,1-3.46-2.71,16.53,16.53,0,0,1-2.74-3.46l-1-1.75,1.75,1A16.6,16.6,0,0,1,265.59,12a17.06,17.06,0,0,1,2.74,3.46l1,1.76Z"/><rect class="a" x="264.89" y="-1.2" width="1.13" height="17.29" transform="translate(44.52 154.79) rotate(-35.31)"/><path class="a" d="M270,14.89a66.08,66.08,0,0,1-5.45-6.83A66.63,66.63,0,0,1,260,.65l.92-.65a64.76,64.76,0,0,1,5.45,6.83A66.1,66.1,0,0,1,271,14.24Z"/><rect class="a" x="299.59" y="9.59" width="11.63" height="1.13" transform="translate(121.6 254.28) rotate(-54.93)"/><path class="a" d="M301.55,14.7a31,31,0,0,1,3-5.15A31.74,31.74,0,0,1,308.36,5l.91.64a30.94,30.94,0,0,1-3,5.14,31.26,31.26,0,0,1-3.82,4.57Z"/><rect class="a" x="302.33" y="10.97" width="13.51" height="1.13" transform="translate(95.74 235.48) rotate(-48.53)"/><path class="a" d="M304.13,16.3a41.21,41.21,0,0,1,4.16-5.46A40.26,40.26,0,0,1,313.21,6l.84.74a41.21,41.21,0,0,1-4.16,5.46A41.75,41.75,0,0,1,305,17Z"/><rect class="a" x="308.49" y="18.5" width="10.2" height="1.13" transform="translate(41.11 175.46) rotate(-33.33)"/><path class="a" d="M308.92,21.48a24.52,24.52,0,0,1,4.08-3.3,23.9,23.9,0,0,1,4.66-2.45l.6.92A23.63,23.63,0,0,1,314.18,20a24.38,24.38,0,0,1-4.65,2.44Z"/><rect class="a" x="309.5" y="18.33" width="21.41" height="1.13" transform="translate(32.21 160.13) rotate(-29.5)"/><path class="a" d="M310.56,23.71A102.69,102.69,0,0,1,319.68,18a103.74,103.74,0,0,1,9.63-4.86l.55,1a101,101,0,0,1-9.12,5.74,103.74,103.74,0,0,1-9.63,4.86Z"/><path class="a" d="M266.9,26.69A12.18,12.18,0,0,1,268.45,24a16.69,16.69,0,0,1,2-2.3A14.48,14.48,0,0,1,273,19.78a10.5,10.5,0,0,1,2.89-1.25l.5,1-1,.76c-.45.35-.89.69-1.32,1.06l-.22.18c-.64.55-1.29,1.11-1.9,1.7-1,.9-1.86,1.8-2.82,2.77l-1.31,1.32Z"/><path class="a" d="M306.29,30.56c-.36-.46-.69-.94-1-1.4s-.53-.74-.8-1.1c-.53-.74-1.12-1.5-1.84-2.38s-1.28-1.51-1.92-2.23c-.81-.87-1.49-1.57-2.17-2.23l.61-.93A10.43,10.43,0,0,1,302,22a16.72,16.72,0,0,1,2.31,2.3,15.5,15.5,0,0,1,3,5.75Z"/><path class="a" d="M302.83,31.68A24.49,24.49,0,0,1,301,29.44l-.39-.5-.2-.27A24.54,24.54,0,0,1,298.57,26l-.79-1.42,1.5.62A6.25,6.25,0,0,1,301,26.24a9,9,0,0,1,1.31,1.4,7.43,7.43,0,0,1,1.54,3.59l.17,1.66Z"/><path class="a" d="M364.53,69.42a10.42,10.42,0,0,1,2.21-2.34,15.52,15.52,0,0,1,1.27-.91l.63-.4c.21-.12.42-.25.64-.4l1.12-.78-.24,1.35a3.87,3.87,0,0,1-.89,1.65,8.41,8.41,0,0,1-1.18,1.14,8.13,8.13,0,0,1-2.94,1.55l-1.41.36Z"/><path class="a" d="M362.06,77a23.8,23.8,0,0,1,3.3-3.06c.59-.46,1.16-.9,1.75-1.33.14-.12.3-.24.47-.36a8.7,8.7,0,0,0,1.14-1l1.38-1.44-.42,2A5,5,0,0,1,368.4,74a14.79,14.79,0,0,1-1.7,1.59,14.12,14.12,0,0,1-4,2.3l-2,.7Z"/><path class="a" d="M395.13,73.83a5.11,5.11,0,0,1-1.91-.46,11.53,11.53,0,0,1-1.75-1,10.78,10.78,0,0,1-2.85-2.8l-1-1.49,1.66.65a17.48,17.48,0,0,1,3.38,1.87l.18.13c.45.32.89.63,1.33,1l.44.33a11.57,11.57,0,0,0,1,.73l1.41.91-1.68.14Z"/><path class="a" d="M396,78.26a6,6,0,0,1-1.3-.17,9.54,9.54,0,0,1-1.51-.5,8.09,8.09,0,0,1-2.69-1.83l-1-1,1.41.09a9.89,9.89,0,0,1,3.07.81,11.69,11.69,0,0,1,2.7,1.61l1,.86-1.35.15Z"/><g class="b"><path class="a" d="M162.09,161.28l5.18,7.14h-3.09l-4.78-6.85h-.46v6.85h-2.52V151.68h3q3.31,0,4.79,1.24a4.58,4.58,0,0,1,1.63,3.67,4.79,4.79,0,0,1-1,3.06A4.52,4.52,0,0,1,162.09,161.28Zm-3.15-1.92h.81q3.58,0,3.59-2.74,0-2.56-3.5-2.57h-.9Z"/><path class="a" d="M190.14,154.05h-6.72v4h6.52v2.38h-6.52v5.6h6.72v2.37H180.9V151.68h9.24Z"/><path class="a" d="M214,154.17,212,155.38a3.66,3.66,0,0,0-1.09-1.3,3,3,0,0,0-3.15.25,1.85,1.85,0,0,0-.69,1.48c0,.81.6,1.47,1.82,2l1.67.68a7.06,7.06,0,0,1,3,2,4.52,4.52,0,0,1,.95,2.91,5.15,5.15,0,0,1-1.54,3.82,5.31,5.31,0,0,1-3.85,1.52,5.13,5.13,0,0,1-3.61-1.3,5.94,5.94,0,0,1-1.74-3.63l2.56-.56a4.44,4.44,0,0,0,.6,2,2.9,2.9,0,0,0,4.25.29,2.75,2.75,0,0,0,.78-2,2.81,2.81,0,0,0-.14-.89,2.33,2.33,0,0,0-.42-.75,3.38,3.38,0,0,0-.74-.64,7.33,7.33,0,0,0-1.09-.57l-1.62-.67q-3.43-1.46-3.43-4.25a4,4,0,0,1,1.44-3.16,5.23,5.23,0,0,1,3.59-1.28A5,5,0,0,1,214,154.17Z"/><path class="a" d="M233.56,154.05v14.37H231V154.05h-3.85v-2.37H237.4v2.37Z"/><path class="a" d="M259.68,164.35h-7.17l-1.86,4.07h-2.72l8.28-17.8,8,17.8h-2.77Zm-1-2.37-2.48-5.7-2.6,5.7Z"/><path class="a" d="M279.3,151.68v10.08a5.58,5.58,0,0,0,.7,3.16,3.77,3.77,0,0,0,5.93,0,5.48,5.48,0,0,0,.71-3.16V151.68h2.53v10.78a6,6,0,0,1-1.65,4.36,6.37,6.37,0,0,1-9.1,0,6,6,0,0,1-1.65-4.36V151.68Z"/><path class="a" d="M310,161.28l5.18,7.14h-3.09l-4.78-6.85h-.46v6.85h-2.53V151.68h3q3.31,0,4.79,1.24a4.61,4.61,0,0,1,1.63,3.67,4.79,4.79,0,0,1-1,3.06A4.52,4.52,0,0,1,310,161.28Zm-3.15-1.92h.8c2.4,0,3.59-.91,3.59-2.74s-1.16-2.57-3.49-2.57h-.9Z"/><path class="a" d="M338.6,164.35h-7.17l-1.86,4.07h-2.73l8.29-17.8,8,17.8h-2.76Zm-1-2.37-2.48-5.7-2.61,5.7Z"/><path class="a" d="M356.32,168.42V150.54l12.22,12.77V151.68h2.52v17.76L358.85,156.7v11.72Z"/><path class="a" d="M390.8,154.05v14.37h-2.52V154.05h-3.85v-2.37h10.21v2.37Z"/></g></svg>